Español e inglés.

General
Format version : Version 2
File size : 16.2 GiB
Duration : 2 h 18 min
Overall bit rate : 16.8 Mb/s
Encoded date : UTC 2012-03-04 12:10:06
Writing application : mkvmerge v5.3.0 ('I could have danced') built on Feb 9 2012 10:38:07
Writing library : libebml v1.2.3 + libmatroska v1.3.0
Video
ID : 1
Format : VC-1
Format profile : AP@L3
Codec ID : WVC1
Codec ID/Hint : Microsoft
Duration : 2 h 18 min
Bit rate : 13.6 Mb/s
Width : 1920 pixels
Height : 1080 pixels
Display aspect ratio : 16:9
Frame rate : 23.976 FPS
Chroma subsampling : 4:2:0
Bit depth : 8 bits
Scan type : Progressive
Compression mode : Lossy
Bits/(Pixel*Frame) : 0.273
Stream size : 13.1 GiB (81%)
Title : The Matrix Reloaded
Language : Spanish
Default : Yes
Forced : Yes
Audio #1
ID : 2
Format : AC-3
Format/Info : Audio Coding 3
Mode extension : CM (complete main)
Format settings, Endianness : Big
Codec ID : A_AC3
Duration : 2 h 18 min
Bit rate mode : Constant
Bit rate : 640 kb/s
Channel(s) : 6 channels
Channel positions : Front: L C R, Side: L R, LFE
Sampling rate : 48.0 kHz
Bit depth : 16 bits
Compression mode : Lossy
Stream size : 633 MiB (4%)
Title : AC3 640 kb/s
Language : Spanish
Default : Yes
Forced : Yes
Audio #2
ID : 3
Format : DTS
Format/Info : Digital Theater Systems
Codec ID : A_DTS
Duration : 2 h 18 min
Bit rate mode : Constant
Bit rate : 755 kb/s
Channel(s) : 6 channels
Channel positions : Front: L C R, Side: L R, LFE
Sampling rate : 48.0 kHz
Bit depth : 24 bits
Compression mode : Lossy
Stream size : 746 MiB (4%)
Title : DTS 755 kb/s
Language : Spanish
Default : No
Forced : No
Audio #3
ID : 4
Format : DTS
Format/Info : Digital Theater Systems
Codec ID : A_DTS
Duration : 2 h 18 min
Bit rate mode : Constant
Bit rate : 1510 kb/s
Channel(s) : 6 channels
Channel positions : Front: L C R, Side: L R, LFE
Sampling rate : 48.0 kHz
Bit depth : 24 bits
Compression mode : Lossy
Stream size : 1.46 GiB (9%)
Title : DTS 1510 kb/s
Language : English
Default : No
Forced : No
Text #1
ID : 5
Format : UTF-8
Codec ID : S_TEXT/UTF8
Codec ID/Info : UTF-8 Plain Text
Title : Completos
Language : Spanish
Default : No
Forced : No
Text #2
ID : 6
Format : UTF-8
Codec ID : S_TEXT/UTF8
Codec ID/Info : UTF-8 Plain Text
Title : Completos
Language : English
Default : No
Forced : No